# xmcd CD database file
#
# Track frame offsets:
#	150
#	20083
#	33438
#	55789
#	72210
#	88246
#	106712
#	124491
#	142649
#	162231
#
# Disc length: 2480 seconds
#
# Revision: 1
# Processed by: cddbd v1.5.2PL0 Copyright (c) Steve Scherf et al.
# Submitted via: jetAudio 5
#
DISCID=8109ae0a
DTITLE=Acoustic Cafe - Sky Dreamer
DYEAR=2002
DGENRE=New Age
TTITLE0=Sky Dreamer
TTITLE1=The Flight Celebration
TTITLE2=Beyond The Sea
TTITLE3=Dozing Off In The Morning
TTITLE4=Fly High In The Sky
TTITLE5=A Voyage Into The Distance
TTITLE6=The Sky-Blue Canvas
TTITLE7=Let Your Dream Fly In The Shining Sky
TTITLE8=Hope For Tomorrow
TTITLE9=Sunset Wings
EXTD=YEAR: 2002
EXTT0=
EXTT1=
EXTT2=
EXTT3=
EXTT4=
EXTT5=
EXTT6=
EXTT7=
EXTT8=
EXTT9=
PLAYORDER=
